<svg xmlns="http://www.w3.org/2000/svg" viewBox="0 0 120 120">
  <defs>
    <linearGradient id="bethesda-bg" x1="0%" y1="0%" x2="100%" y2="100%">
      <stop offset="0%" stop-color="#1c9dd9"/>
      <stop offset="100%" stop-color="#38efc3"/>
    </linearGradient>
    <linearGradient id="bethesda-cross" x1="0%" y1="0%" x2="100%" y2="100%">
      <stop offset="0%" stop-color="#ffffff" stop-opacity="0.95"/>
      <stop offset="100%" stop-color="#e0f2ff" stop-opacity="0.85"/>
    </linearGradient>
  </defs>
  <rect width="120" height="120" rx="26" fill="url(#bethesda-bg)"/>
  <path d="M60 22c-21 0-38 17-38 38s17 38 38 38 38-17 38-38S81 22 60 22zm0 10c15.5 0 28 12.5 28 28S75.5 88 60 88 32 75.5 32 60 44.5 32 60 32z" fill="rgba(15, 27, 56, 0.28)"/>
  <path d="M54 38c-1.7 0-3 1.3-3 3v16H35c-1.7 0-3 1.3-3 3v6c0 1.7 1.3 3 3 3h16v16c0 1.7 1.3 3 3 3h6c1.7 0 3-1.3 3-3V69h16c1.7 0 3-1.3 3-3v-6c0-1.7-1.3-3-3-3H63V41c0-1.7-1.3-3-3-3z" fill="url(#bethesda-cross)"/>
  <text x="60" y="102" text-anchor="middle" font-family="'Poppins', 'Segoe UI', sans-serif" font-size="15" font-weight="600" fill="#05203b">Bethesda</text>
</svg>
