<svg xmlns="http://www.w3.org/2000/svg" viewBox="0 0 120 120">
  <defs>
    <linearGradient id="dj-bg" x1="0%" y1="0%" x2="100%" y2="100%">
      <stop offset="0%" stop-color="#12d6c5"/>
      <stop offset="100%" stop-color="#6d5bff"/>
    </linearGradient>
    <linearGradient id="dj-ring" x1="0%" y1="0%" x2="100%" y2="100%">
      <stop offset="0%" stop-color="#f8fafc" stop-opacity="0.9"/>
      <stop offset="100%" stop-color="#c7d2fe" stop-opacity="0.75"/>
    </linearGradient>
  </defs>
  <rect width="120" height="120" rx="26" fill="url(#dj-bg)"/>
  <path d="M60 26c-18.9 0-34 15.1-34 34s15.1 34 34 34c8.8 0 16.8-3.2 22.9-8.4 2-1.7 2.1-4.8 0.1-6.5l-5.7-4.9c-1.5-1.3-3.8-1.2-5.4 0.1-3.3 2.9-7.6 4.6-11.9 4.6-10.1 0-18.4-8.3-18.4-18.4S49.9 42 60 42c4.3 0 8.5 1.6 11.9 4.6 1.6 1.3 3.9 1.4 5.4 0.1l5.7-4.9c1.9-1.7 1.8-4.8-0.1-6.5C76.8 29.2 68.8 26 60 26z" fill="url(#dj-ring)"/>
  <path d="M88 88c0-15.5-12.5-28-28-28H44c-2.8 0-5 2.2-5 5v26c0 2.8 2.2 5 5 5h16c15.5 0 28-12.5 28-28z" fill="rgba(16,27,68,0.28)"/>
  <path d="M69 62h-9c-2.8 0-5 2.2-5 5v22.5c0 2.8 2.2 5 5 5h9c15.1 0 27.5-12.4 27.5-27.5 0-1.7-0.2-3.4-0.5-5h-9c-11 0-18 4-18 0z" fill="#0f172a" opacity="0.14"/>
  <text x="60" y="96" text-anchor="middle" font-family="'Poppins', 'Segoe UI', sans-serif" font-weight="700" font-size="18" fill="#ffffff">Djiminy</text>
</svg>
